<svg width="218" height="218" viewBox="0 0 218 218" fill="none" xmlns="http://www.w3.org/2000/svg">
<circle cx="109" cy="109" r="102" fill="white" stroke="#BEB6A0" stroke-width="14"/>
<path d="M135.32 157.098L106.433 115.127L102.319 109.152L68.798 60.4495H83.2171L110.326 99.8364L114.439 105.811L149.739 157.098H135.32ZM155.7 152.998L119.316 100.139L115.202 94.1608L89.1754 56.3488L87.0183 53.2153H55.0366L62.8364 64.5492L97.4421 114.831L101.556 120.802L129.361 161.202L131.518 164.332H163.5L155.7 152.998Z" fill="#242424"/>
<path d="M102.319 109.152L106.432 115.127L101.556 120.802L64.1385 164.332H54.9116L97.4421 114.831L102.319 109.152Z" fill="#242424"/>
<path d="M159.65 53.2148L119.316 100.139L114.439 105.811L110.326 99.836L115.202 94.1603L142.524 62.3595L150.423 53.2148H159.65Z" fill="#242424"/>
</svg>
