<svg width="218" height="218" viewBox="0 0 218 218" fill="none" xmlns="http://www.w3.org/2000/svg">
<circle cx="109" cy="109" r="102" fill="white" stroke="#BEB6A0" stroke-width="14"/>
<path d="M53 71.7011V108.65L69.7422 101.433V81.8042L89.6597 92.7732L107.557 84.1135L69.7422 63.6187L53 71.7011Z" fill="#242424"/>
<path d="M109.288 43.1235L80.7106 58.1338L99.7621 68.2369L109.288 63.3297L118.236 68.2369L138.442 58.1338L109.288 43.1235Z" fill="#242424"/>
<path d="M150.278 64.7729L130.361 74.2987L143.35 82.3812L53 123.082V145.309L66.8556 152.525L86.4845 142.711L74.3608 135.783L165 93.9275V72.2781L150.278 64.7729Z" fill="#242424"/>
<path d="M165 144.443V108.072L147.969 115.288V134.628L128.052 124.237L110.155 133.185L148.546 153.103L165 144.443Z" fill="#242424"/>
<path d="M98.8961 149.927L80.7106 158.587L109.288 173.597L138.731 158.587L120.546 149.927L109.288 154.257L98.8961 149.927Z" fill="#242424"/>
</svg>
